<svg width="110" height="111" viewBox="0 0 110 111" fill="none" xmlns="http://www.w3.org/2000/svg">
    <path fill-rule="evenodd" clip-rule="evenodd"
        d="M21.4447 98.8641C30.7136 105.921 42.2838 110.111 54.8327 110.111C85.2999 110.111 109.999 85.4128 109.999 54.9455C109.999 41.2088 104.978 28.6448 96.6712 18.9884C96.8775 22.6916 96.7226 26.4607 96.2251 30.2339C94.1577 45.9121 86.1775 62.0439 73.0507 75.1706C59.924 88.2973 43.7923 96.2776 28.1141 98.3449C25.8852 98.6388 23.6579 98.8131 21.4447 98.8641ZM59.8082 0.000976562C67.0573 0.648994 73.9027 2.69925 80.0712 5.87856C83.1482 12.374 84.2018 20.1384 83.0989 28.5031C81.4445 41.0491 74.936 54.5614 63.6888 65.8086C52.4416 77.0558 38.9293 83.5644 26.3832 85.2187C19.6908 86.1012 13.3825 85.6031 7.80108 83.7928C3.84199 77.3518 1.16896 70.0354 0.139697 62.2014C3.72417 62.5265 7.41147 62.3318 11.0625 61.6854C21.9343 59.7607 33.1418 53.7896 42.4072 44.5243C51.6725 35.2589 57.6436 24.0514 59.5683 13.1796C60.3512 8.75755 60.4715 4.28228 59.8082 0.000976562ZM-0.00146484 48.8607C2.72202 24.0387 21.913 4.17104 46.411 0.418402C47.142 3.45302 47.2221 6.9693 46.5312 10.8715C45.1347 18.76 40.6276 27.5799 33.0452 35.1623C25.4628 42.7447 16.6429 47.2518 8.75441 48.6483C5.55959 49.214 2.62345 49.2628 -0.00146484 48.8607Z"
        fill="#0A98FF" />
</svg>